<svg width="500" height="400" viewBox="0 0 500 400" xmlns="http://www.w3.org/2000/svg">
  <!-- Background Shapes -->
  <circle cx="250" cy="200" r="180" fill="#E3F2FD" opacity="0.5"/>
  <circle cx="250" cy="200" r="150" fill="#BBDEFB" opacity="0.3"/>
  
  <!-- Document Icons -->
  <g transform="translate(150, 120)">
    <!-- Left Document -->
    <rect x="0" y="0" width="80" height="100" rx="4" fill="#1976D2"/>
    <rect x="10" y="20" width="60" height="4" rx="2" fill="white"/>
    <rect x="10" y="30" width="40" height="4" rx="2" fill="white"/>
    <rect x="10" y="40" width="50" height="4" rx="2" fill="white"/>
    
    <!-- Right Document -->
    <rect x="120" y="0" width="80" height="100" rx="4" fill="#1976D2"/>
    <rect x="130" y="20" width="60" height="4" rx="2" fill="white"/>
    <rect x="130" y="30" width="40" height="4" rx="2" fill="white"/>
    <rect x="130" y="40" width="50" height="4" rx="2" fill="white"/>
    
    <!-- Arrow -->
    <path d="M 90 50 L 110 50 M 105 45 L 110 50 L 105 55" stroke="#1976D2" stroke-width="3" fill="none"/>
  </g>
  
  <!-- Globe Icon -->
  <g transform="translate(200, 250)">
    <circle cx="50" cy="50" r="30" fill="#2196F3"/>
    <path d="M 20 50 Q 50 20 80 50 Q 50 80 20 50" stroke="white" stroke-width="2" fill="none"/>
    <path d="M 50 20 L 50 80" stroke="white" stroke-width="2"/>
    <path d="M 20 50 L 80 50" stroke="white" stroke-width="2"/>
  </g>
</svg> 